# xmcd
#
# Track frame offsets:
#	150
#	36453
#	62933
#	91278
#	113557
#	147368
#	183697
#
# Disc length: 3068 seconds
#
# Revision: 1
# Processed by: cddbd v1.5.2PL0 Copyright (c) Steve Scherf et al.
# Submitted via: audiograbber 1.83.01
#
DISCID=650bfa07
DTITLE=Grateful Dead - 73-05-13 State Fairgrounds, Des Moines IA
DYEAR=1900
DGENRE=
TTITLE0=Tennessee Jed
TTITLE1=Big River
TTITLE2=Bertha
TTITLE3=Jack Straw
TTITLE4=Sugaree
TTITLE5=Looks Like Rain
TTITLE6=Here Comes Sunshine
EXTD=
EXTT0=
EXTT1=
EXTT2=
EXTT3=
EXTT4=
EXTT5=
EXTT6=
PLAYORDER=
